{"title":"Life Of Pi[2012]BRrip[Ac3-5.1]-=[CaLvIn]=-","uid":8266230,"size":1070626381,"categoryP":"video","categoryS":"movies","magnet":"?xt=urn:btih:47410a30c50edfbbd41858be8bcfb5c907779704&amp;dn=Life+Of+Pi%5B2012%5DBRrip%5BAc3-5.1%5D-%3D%5BCaLvIn%5D%3D-&amp;tr=udp%3A%2F%2Ftracker.openbittorrent.com%3A80&amp;tr=udp%3A%2F%2Fopen.demonii.com%3A1337&amp;tr=udp%3A%2F%2Ftracker.coppersurfer.tk%3A6969&amp;tr=udp%3A%2F%2Fexodus.desync.com%3A6969","seeders":1,"leechers":3,"uploader":"rhythmtheguru","files":15,"time":1363514400,"description":"General\nComplete name                    : Life Of Pi[2012]BRrip[Ac3-5.1]-=[CaLvIn]=-\nImdb Link                        : http://www.imdb.com/title/tt0454876/\nFormat                           : AVI\nFormat/Info                      : Audio Video Interleave\nFile size                        : 1 011 MiB\nDuration                         : 2h 6mn\nOverall bit rate                 : 1 113 Kbps\nWriting application              : VirtualDubMod 1.5.10.3 | www.virtualdub-fr.org || (build 2550/release)\nWriting library                  : VirtualDubMod build 2550/release\n\nVideo\nID                               : 0\nFormat                           : MPEG-4 Visual\nFormat profile                   : Advanced Simple@L5\nFormat settings, BVOP            : 2\nFormat settings, QPel            : No\nFormat settings, GMC             : No warppoints\nFormat settings, Matrix          : Default (H.263)\nCodec ID                         : XVID\nCodec ID/Hint                    : XviD\nDuration                         : 2h 6mn\nBit rate                         : 848 Kbps\nWidth                            : 720 pixels\nHeight                           : 400 pixels\nDisplay aspect ratio             : 16:9\nFrame rate                       : 23.976 fps\nColor space                      : YUV\nChroma subsampling               : 4:2:0\nBit depth                        : 8 bits\nScan type                        : Progressive\nCompression mode                 : Lossy\nBits/(Pixel*Frame)               : 0.123\nStream size                      : 770 MiB (76%)\nWriting library                  : XviD 1.2.1 (UTC 2008-12-04)\n\nAudio\nID                               : 1\nFormat                           : AC-3\nFormat/Info                      : Audio Coding 3\nMode extension                   : CM (complete main)\nCodec ID                         : 2000\nDuration                         : 2h 6mn\nBit rate mode                    : Constant\nBit rate                         : 256 Kbps\nChannel(s)                       : 6 channels\nChannel positions                : Front: L C R, Side: L R, LFE\nSampling rate                    : 48.0 KHz\nBit depth                        : 16 bits\nCompression mode                 : Lossy\nStream size                      : 233 MiB (23%)\nAlignment                        : Split accross interleaves\nInterleave, duration             : 42 ms (1.00 video frame)\nInterleave, preload duration     : 500 ms\n\n\nScreens\n\n &lt;a href=&quot;\nhttp://img51.imageshack.us/img51/2646/77684576.png&quot; rel=&quot;nofollow&quot; target=&quot;_NEW&quot;&gt;\nhttp://img51.imageshack.us/img51/2646/77684576.png&lt;/a&gt; &lt;a href=&quot;\nhttp://img202.imageshack.us/img202/4958/77598534.png&quot; rel=&quot;nofollow&quot; target=&quot;_NEW&quot;&gt;\nhttp://img202.imageshack.us/img202/4958/77598534.png&lt;/a&gt; &lt;a href=&quot;\nhttp://img195.imageshack.us/img195/6968/45222420.png&quot; rel=&quot;nofollow&quot; target=&quot;_NEW&quot;&gt;\nhttp://img195.imageshack.us/img195/6968/45222420.png&lt;/a&gt; &lt;a href=&quot;\nhttp://img829.imageshack.us/img829/4380/88132233.png&quot; rel=&quot;nofollow&quot; target=&quot;_NEW&quot;&gt;\nhttp://img829.imageshack.us/img829/4380/88132233.png&lt;/a&gt; &lt;a href=&quot;\nhttp://img803.imageshack.us/img803/8869/51291751.png&quot; rel=&quot;nofollow&quot; target=&quot;_NEW&quot;&gt;\nhttp://img803.imageshack.us/img803/8869/51291751.png&lt;/a&gt; &lt;a href=&quot;\nhttp://img266.imageshack.us/img266/8486/32202437.png&quot; rel=&quot;nofollow&quot; target=&quot;_NEW&quot;&gt;\nhttp://img266.imageshack.us/img266/8486/32202437.png&lt;/a&gt; &lt;a href=&quot;\nhttp://img541.imageshack.us/img541/8687/93578915.png&quot; rel=&quot;nofollow&quot; target=&quot;_NEW&quot;&gt;\nhttp://img541.imageshack.us/img541/8687/93578915.png&lt;/a&gt; &lt;a href=&quot;\nhttp://img33.imageshack.us/img33/2044/90236052.png&quot; rel=&quot;nofollow&quot; target=&quot;_NEW&quot;&gt;\nhttp://img33.imageshack.us/img33/2044/90236052.png&lt;/a&gt; &lt;a href=&quot;\nhttp://img26.imageshack.us/img26/6839/46097008.png&quot; rel=&quot;nofollow&quot; target=&quot;_NEW&quot;&gt;\nhttp://img26.imageshack.us/img26/6839/46097008.png&lt;/a&gt; &lt;a href=&quot;\nhttp://img833.imageshack.us/img833/4936/85589282.png&quot; rel=&quot;nofollow&quot; target=&quot;_NEW&quot;&gt;\nhttp://img833.imageshack.us/img833/4936/85589282.png&lt;/a&gt;","torrent":{"xt":"urn:btih:47410a30c50edfbbd41858be8bcfb5c907779704","amp;dn":"Life+Of+Pi%5B2012%5DBRrip%5BAc3-5.1%5D-%3D%5BCaLvIn%5D%3D-","amp;tr":["udp%3A%2F%2Ftracker.openbittorrent.com%3A80","udp%3A%2F%2Fopen.demonii.com%3A1337","udp%3A%2F%2Ftracker.coppersurfer.tk%3A6969","udp%3A%2F%2Fexodus.desync.com%3A6969"],"infoHash":"47410a30c50edfbbd41858be8bcfb5c907779704","infoHashBuffer":{"type":"Buffer","data":[71,65,10,48,197,14,223,187,212,24,88,190,139,207,181,201,7,119,151,4]},"announce":[],"urlList":[]}}